<?xml version="1.0" encoding="iso-8859-1"?>
<!-- Generator: Adobe Illustrator 19.0.0, SVG Export Plug-In . SVG Version: 6.00 Build 0)  -->
<svg version="1.1" id="Layer_1" xmlns="http://www.w3.org/2000/svg" xmlns:xlink="http://www.w3.org/1999/xlink" x="0px" y="0px"
	 viewBox="0 0 512 512" style="enable-background:new 0 0 512 512;" xml:space="preserve">
<g>
	<g>
		<g>
			<path d="M381.235,163.524c-3.951,2.577-5.06,7.859-2.492,11.81c9.02,13.841,13.79,29.935,13.79,46.532
				c0,4.71,3.814,8.533,8.533,8.533c4.71,0,8.533-3.823,8.533-8.533c0-19.917-5.726-39.228-16.555-55.851
				C390.468,162.074,385.186,160.947,381.235,163.524z"/>
			<path d="M196.096,157.696c3.925,2.645,9.216,1.579,11.836-2.321c22.272-33.178,59.375-52.975,99.268-52.975
				c65.869,0,119.467,53.589,119.467,119.467c0,10.812-1.451,21.53-4.292,31.863c-1.254,4.548,1.408,9.242,5.956,10.496
				c0.759,0.213,1.519,0.307,2.27,0.307c3.746,0,7.177-2.483,8.226-6.263c3.251-11.81,4.907-24.055,4.907-36.403
				c0-75.281-61.252-136.533-136.533-136.533c-45.585,0-87.987,22.622-113.434,60.518
				C191.138,149.769,192.179,155.068,196.096,157.696z"/>
			<path d="M44.211,281.668c0.512,0,1.033-0.051,1.553-0.145c4.634-0.845,7.706-5.299,6.852-9.933
				C51.669,266.479,51.2,261.231,51.2,256c0-47.053,38.281-85.333,85.333-85.333c23.561,0,45.5,9.404,61.773,26.462
				c3.243,3.413,8.661,3.533,12.066,0.29c3.405-3.251,3.541-8.653,0.282-12.066c-19.524-20.48-45.85-31.753-74.121-31.753
				c-56.465,0-102.4,45.935-102.4,102.4c0,6.263,0.572,12.544,1.698,18.671C36.582,278.793,40.175,281.668,44.211,281.668z"/>
			<path d="M468.625,240.58c-3.857-2.714-9.173-1.792-11.896,2.048c-2.714,3.849-1.801,9.173,2.048,11.895
				c22.639,15.991,36.156,42.069,36.156,69.743c0,47.053-38.281,85.333-85.333,85.333H68.267c-28.237,0-51.2-22.963-51.2-51.2
				c0-28.237,22.963-51.2,51.2-51.2c4.71,0,8.533-3.823,8.533-8.533s-3.823-8.533-8.533-8.533C30.626,290.133,0,320.759,0,358.4
				c0,37.641,30.626,68.267,68.267,68.267H409.6c56.456,0,102.4-45.935,102.4-102.4C512,291.055,495.787,259.772,468.625,240.58z"/>
			<path d="M97.493,200.004c-12.638,8.823-22.016,21.777-26.402,36.489c-1.34,4.514,1.229,9.267,5.743,10.615
				c0.811,0.239,1.638,0.358,2.441,0.358c3.678,0,7.074-2.398,8.175-6.101c3.285-11.025,10.325-20.745,19.814-27.366
				c3.866-2.697,4.804-8.021,2.108-11.878C106.684,198.255,101.376,197.299,97.493,200.004z"/>
		</g>
	</g>
</g>
<g>
</g>
<g>
</g>
<g>
</g>
<g>
</g>
<g>
</g>
<g>
</g>
<g>
</g>
<g>
</g>
<g>
</g>
<g>
</g>
<g>
</g>
<g>
</g>
<g>
</g>
<g>
</g>
<g>
</g>
</svg>
