<?xml version="1.0" ?><!DOCTYPE svg  PUBLIC '-//W3C//DTD SVG 1.1//EN'  'http://www.w3.org/Graphics/SVG/1.1/DTD/svg11.dtd'><svg width="32px" height="32px" viewBox="0 0 32 32" enable-background="new 0 0 32 32" version="1.1" xml:space="preserve" xmlns="http://www.w3.org/2000/svg" xmlns:xlink="http://www.w3.org/1999/xlink"><g id="Layer_2"/><g id="Layer_3"/><g id="Layer_4"/><g id="Layer_5"/><g id="Layer_6"><g><g><path d="M27.9,20.9C27.5,22,27,23,26.3,24c-0.8,1.1-1.8,2.1-2.9,2.9C23.2,26.9,23,27,22.8,27c-0.1,0-0.1,0-0.2,0     c-1.8-0.1-2.8-0.6-3.6-1.1c-0.8-0.5-1.5-0.9-3-0.9s-2.2,0.4-3,0.9c-0.8,0.5-1.7,1-3.2,1.1c0,0,0,0,0,0c-0.2,0-0.4-0.1-0.6-0.2     c-0.9-0.6-1.7-1.4-2.4-2.2C5,22.4,4,19.7,4,16.8C4,11.2,7.9,6.3,13.5,5c0.4-0.1,0.7,0,1,0.3c0.2,0.3,0.3,0.7,0.2,1     c-0.4,1.1-0.6,2.2-0.6,3.4c0,5.6,4.6,10.1,10.3,10.1c0.8,0,1.6-0.1,2.4-0.3c0.3-0.1,0.7,0,1,0.3C28,20.1,28.1,20.5,27.9,20.9z" fill="#FFC10A"/></g></g><g><path d="M31,24c0,0.5-0.5,1-1,1c-1.5,0-2.2,0.4-3,0.9c-0.4,0.2-0.8,0.5-1.3,0.6C24.9,26.8,24,27,23,27    c-0.1,0-0.1,0-0.2,0c-0.1,0-0.1,0-0.2,0c-1.8-0.1-2.8-0.6-3.6-1.1c-0.8-0.5-1.5-0.9-3-0.9s-2.2,0.4-3,0.9c-0.8,0.5-1.7,1-3.2,1.1    c0,0,0,0,0,0c-0.3,0-0.5,0-0.8,0c-1,0-1.9-0.2-2.7-0.5c-0.5-0.2-0.9-0.4-1.3-0.6C4.2,25.4,3.5,25,2,25c-0.5,0-1-0.5-1-1s0.5-1,1-1    c2,0,3.1,0.6,4,1.1c0.3,0.1,0.5,0.3,0.8,0.4c0.1,0,0.2,0.1,0.3,0.1C7.6,24.9,8.2,25,9,25c1.5,0,2.2-0.4,3-0.9c0.9-0.5,2-1.1,4-1.1    c2,0,3.1,0.6,4,1.1c0.8,0.5,1.5,0.9,3,0.9c0.8,0,1.4-0.1,2-0.3c0.4-0.1,0.7-0.3,1-0.5c0.1-0.1,0.2-0.1,0.3-0.2    c0.9-0.5,1.9-1,3.7-1C30.5,23,31,23.5,31,24z" fill="#2197F3"/></g></g><g id="Layer_7"/><g id="Layer_8"/><g id="Layer_9"/><g id="Layer_10"/><g id="Layer_11"/><g id="Layer_12"/><g id="Layer_13"/><g id="Layer_14"/><g id="Layer_15"/><g id="Layer_16"/><g id="Layer_17"/><g id="Layer_18"/><g id="Layer_19"/><g id="Layer_20"/><g id="Layer_21"/><g id="Layer_22"/><g id="Layer_23"/><g id="Layer_24"/><g id="Layer_25"/><g id="Wearher"/></svg>